# xmcd CD database file
#
# Track frame offsets:
#	150
#	11442
#	29601
#	48380
#	70743
#	91598
#	105476
#	118865
#	138915
#	156418
#
# Disc length: 2305 seconds
#
# Revision: 1
# Processed by: cddbd v1.5.1PL0 Copyright (c) Steve Scherf et al.
# Submitted via: CDex 1.51
#
DISCID=7b08ff0a
DTITLE=The Lonesome Bones - The Lonesome Bones
DYEAR=1900
DGENRE=Country
TTITLE0=Time Never Forgets
TTITLE1=Talk about It
TTITLE2=Betty Jean
TTITLE3=She Ain't Coming Back
TTITLE4=Sunday Morning
TTITLE5=Shelter
TTITLE6=Stardust Cowboy
TTITLE7=Prison Bound
TTITLE8=Drunken Love
TTITLE9=Budweiser Girl
EXTD=
EXTT0=
EXTT1=
EXTT2=
EXTT3=
EXTT4=
EXTT5=
EXTT6=
EXTT7=
EXTT8=
EXTT9=
PLAYORDER=
